<svg width="813" height="378" viewBox="0 0 813 378" fill="none" xmlns="http://www.w3.org/2000/svg">
<path d="M13.2905 358.201H809.64C809.64 358.201 824.048 152.224 613.006 110.121C303.787 48.4373 79.865 251.405 13.2905 358.201" fill="#C5E0F8" fill-opacity="0.15"/>
<path d="M813 357.726C813 368.503 631.004 377.237 406.499 377.237C181.999 377.237 0 368.503 0 357.726C0 346.95 181.999 338.215 406.499 338.215C631.004 338.215 813 346.95 813 357.726Z" fill="#C5E0F8"/>
<path d="M744.187 65.0751C739.64 62.7013 734.284 64.0739 729.892 66.1099C729.165 66.4477 726.925 68.2129 726.042 67.9116C725.972 67.8873 726.852 56.091 719.63 50.2629C707.952 40.8344 682.446 41.6075 680.288 63.9521C673.936 60.8448 665.338 63.7178 662.925 70.9793C660.572 78.0674 666.312 84.1299 675.114 84.1299C690.806 84.1299 706.498 83.4786 722.186 83.156C728.577 83.0221 735.611 83.7038 741.905 82.4286C745.916 81.616 749.641 79.1266 750.027 74.7227C750.383 70.7359 747.602 66.8616 744.187 65.0751Z" fill="#F8F8F8"/>
<path d="M142.767 66.3585C137.718 63.519 131.762 65.1624 126.884 67.5941C126.074 67.9989 123.585 70.111 122.599 69.7519C122.401 69.6788 121.485 67.4998 121.269 67.1924C119.96 65.3207 118.125 63.9724 116.061 63.2268C113.471 62.2894 110.787 62.3807 108.383 63.3486C106.779 50.7489 102.552 36.7462 88.9356 35.404C83.2688 34.8471 78.1315 37.7657 75.3498 43.116C71.8681 49.8176 72.839 57.6787 71.7464 65.0194C64.6857 61.3003 55.1294 64.7363 52.4482 73.4192C49.8308 81.9011 56.8124 90.3222 63.8092 88.0579C64.2627 88.7184 64.9871 89.1718 65.9944 89.1475C83.4362 88.761 100.878 88.3745 118.317 87.9849C125.42 87.8266 133.235 88.6392 140.232 87.1145C144.691 86.1436 148.83 83.1702 149.262 77.8991C149.655 73.13 146.562 68.495 142.767 66.3585" fill="#F8F8F8"/>
<path d="M467.842 50.1298L467.306 50.0994L467.419 49.7615C467.501 45.0138 463.724 40.9539 459.46 41.1274C459.229 37.6244 458.556 33.4671 455.589 31.565C453.669 30.3324 451.073 30.299 449.435 31.8968C449.104 27.2647 448.513 22.4926 445.799 18.7827C443.236 15.295 439.279 13.9589 435.402 15.3315C426.856 18.3475 425.438 28.8716 423.859 37.591C422.982 33.3819 420.2 29.6933 416.399 28.3238C411.971 26.7199 406.992 28.5733 404.073 32.4567C403.541 29.6811 401.858 26.9908 399.14 26.6347C397.354 26.4065 395.555 27.3347 394.587 28.902C394.149 22.7178 394.752 16.2841 392.804 10.4012C391.325 5.93344 388.315 1.50531 383.941 0.300118C379.194 -1.00855 374.759 2.15355 371.795 6.00041C368.417 10.4103 366.226 16.0132 365.221 21.6496C364.132 27.7699 364.4 34.158 366.137 40.0957C360.598 37.8405 354.609 43.7539 357.025 50.2607C356.873 50.428 356.934 50.7659 357.211 50.7872C364.363 51.2924 371.616 50.9667 378.78 50.9728C385.965 50.9728 393.151 50.9789 400.339 50.9789C414.719 50.985 429.09 50.985 443.47 50.985C451.575 50.985 459.743 51.2985 467.842 50.8206C468.25 50.7993 468.25 50.1511 467.842 50.1298" fill="#F8F8F8"/>
<path d="M480.206 196.236C485.447 185.821 495.277 178.779 497.383 177.878C503.503 178.161 525.182 181.618 527.622 181.716C529.631 182.793 531.478 189.391 534.841 201.056C542.973 229.263 533.791 345.277 533.791 345.277L531.539 345.125C531.539 345.125 523.307 294.742 515.695 258.805C510.862 235.979 504.292 214.012 504.103 213.732C500.746 223.712 502.027 325.425 498.698 343.113C498.138 346.099 497.392 345.971 497.155 343.524C495.46 326.213 466.912 222.655 480.206 196.236" fill="#FF97A6"/>
<path d="M530.775 187.725C530.775 187.725 515.235 191.928 489.494 183.541C489.494 183.541 474.283 193.471 476.718 222.533C479.153 251.594 479.749 256.022 479.749 256.022C479.749 256.022 531.225 269.556 538.037 264.681C538.037 264.681 543.971 210.131 530.775 187.725" fill="#4A4A4B"/>
<path d="M530.774 187.726C530.774 187.726 523.293 191.257 511.366 190.115C508.992 189.887 518.585 208.001 515.943 220.979C511.682 241.938 505.599 262.031 505.599 262.031C505.599 262.031 532.378 268.157 538.035 264.682C538.035 264.682 543.97 210.132 530.774 187.726" fill="#353536"/>
<path d="M522.854 143.161C522.854 143.161 534.833 131.374 524.969 124.35C524.969 124.35 528.771 113.33 520 109.997C520 109.997 514.229 108.393 512.047 115.92C512.047 115.92 506.265 115.034 505.626 122.755C505.626 122.755 501.325 114.772 492.843 120.524C484.355 126.273 487.344 138.057 487.344 138.057C487.344 138.057 479.343 137.911 476.451 146.126C469.774 165.107 489.809 170.156 489.809 170.156L522.854 143.161Z" fill="#3B2B5B"/>
<path d="M534.448 153.659L529.768 172.34L530.775 187.727C530.775 187.727 520.181 191.343 511.367 190.116C500.043 188.546 489.93 183.591 489.494 183.542C488.721 183.463 485.27 146.063 492.474 142.186C498.092 139.167 506.982 138.375 519.843 140.466C526.402 141.528 534.494 147.177 534.448 153.659Z" fill="#D5EAF5"/>
<path d="M524.97 124.353C525.363 123.002 525.567 121.602 525.646 120.205C525.71 118.808 525.609 117.405 525.256 116.06C524.882 114.727 524.209 113.494 523.296 112.49L522.566 111.775L521.723 111.2C521.455 110.987 521.142 110.841 520.828 110.707L519.897 110.281L519.921 110.287C519.102 110.113 518.18 110.135 517.343 110.351C516.5 110.564 515.718 110.971 515.052 111.525C514.4 112.098 513.874 112.807 513.439 113.574C513.223 113.957 513.058 114.371 512.867 114.767L512.434 116.036L511.987 116.322C511.22 116.249 510.35 116.367 509.604 116.672C508.846 116.976 508.189 117.475 507.665 118.102C507.142 118.732 506.801 119.505 506.53 120.296C506.414 120.701 506.323 121.115 506.229 121.526L506.068 122.795L505.562 123.185L505.234 122.972C503.858 120.677 501.356 118.854 498.648 118.912C495.954 118.976 493.316 120.421 491.337 122.32L490.616 123.063L489.98 123.885C489.539 124.42 489.225 125.041 488.888 125.65C488.288 126.901 487.801 128.218 487.552 129.6C486.995 132.342 487.055 135.249 487.606 137.994V137.997L487.39 138.326L487.338 138.332C486.191 138.344 484.995 138.56 483.875 138.919C482.749 139.269 481.675 139.802 480.707 140.489C479.745 141.177 478.86 142.002 478.175 142.982C477.791 143.445 477.52 143.98 477.21 144.495C476.918 145.018 476.711 145.581 476.452 146.129C476.869 145.003 477.323 143.868 478.032 142.882C478.689 141.859 479.56 140.983 480.521 140.237C481.486 139.491 482.579 138.901 483.732 138.49C484.892 138.082 486.091 137.836 487.348 137.79L487.08 138.125C486.441 135.282 486.313 132.345 486.821 129.463C487.293 126.581 488.641 123.796 490.756 121.721C491 121.441 491.283 121.203 491.578 120.981L492.448 120.296C493.054 119.883 493.69 119.505 494.335 119.152C495.659 118.498 497.12 118.041 498.642 118.008C500.16 117.974 501.694 118.443 502.945 119.289C504.211 120.132 505.234 121.228 506.016 122.549L505.182 122.725L505.368 121.368C505.471 120.923 505.572 120.473 505.702 120.032C506.013 119.161 506.399 118.297 507.014 117.564C507.623 116.836 508.414 116.252 509.3 115.905C510.194 115.555 511.12 115.421 512.109 115.524L511.661 115.811L512.127 114.471C512.337 114.042 512.517 113.604 512.757 113.187C513.241 112.359 513.84 111.592 514.592 110.968C515.353 110.363 516.245 109.922 517.194 109.708C518.144 109.495 519.106 109.483 520.083 109.712L520.089 109.715L520.11 109.721L521.084 110.198C521.412 110.348 521.738 110.509 522.021 110.74L522.907 111.376L523.668 112.155C524.623 113.245 525.271 114.581 525.603 115.975C525.917 117.375 525.962 118.811 525.841 120.217C525.713 121.626 525.433 123.02 524.97 124.353" fill="#4A4A4B"/>
<path d="M534.446 153.659L529.766 172.339L530.773 187.726C530.773 187.726 523.977 190.067 521.612 190.368C514.375 191.293 511.365 190.115 511.365 190.115C511.365 190.115 518.523 175.303 520.943 161.666C523.463 147.456 519.841 140.465 519.841 140.465C519.841 140.465 534.446 143.134 534.446 153.659Z" fill="#AACBE8"/>
<path d="M554.804 167.59C557.044 167.1 559.433 184.025 547.144 188.41C547.144 188.41 531.936 191.442 530.441 163.695L541.285 177.987C541.285 177.987 550.951 168.436 554.682 167.618L554.804 167.59" fill="#AACBE8"/>
<path d="M525.574 173.839L548.509 180.001C548.831 180.09 549.169 179.904 549.26 179.585L558.454 147.054C558.546 146.734 558.354 146.405 558.028 146.317L535.096 140.154C534.774 140.066 534.436 140.252 534.345 140.571L525.147 173.102C525.059 173.422 525.251 173.75 525.574 173.839" fill="#3B2B5B"/>
<path d="M527.049 174.234L548.508 180.001C548.831 180.09 549.169 179.904 549.26 179.585L558.244 147.805C558.333 147.486 558.144 147.157 557.815 147.072L536.356 141.302C536.03 141.213 535.696 141.399 535.604 141.719L526.62 173.498C526.532 173.817 526.721 174.146 527.049 174.234Z" fill="#4A4A4B"/>
<path d="M532.952 158.526C533.363 158.316 533.889 157.979 533.786 157.696L533.494 157.592L533.512 157.546L533.905 156.688C533.728 156.515 533.369 156.436 532.985 156.399L532.946 156.262C532.352 155.982 531.643 156.153 531.135 156.353L530.532 156.636L530.475 156.67H530.49C529.059 157.766 527.602 161.214 527.687 162.197C527.748 162.912 526.716 163.542 526.792 163.989C526.923 164.802 527.915 164.799 527.915 164.799L529.799 161.661C529.799 161.661 531.908 159.899 532.952 158.526" fill="#FF97A6"/>
<path d="M505.598 139.296C505.598 139.296 489.93 137.184 487.556 150.368C486.36 157.039 485.615 165.415 485.7 170.598C485.797 176.715 491.607 181.207 497.725 179.847C497.725 179.847 492.462 152.745 499.7 144.44C503.197 140.428 505.598 139.296 505.598 139.296" fill="#D5EAF5"/>
<path d="M525.882 160.501C525.377 159.719 497.663 169.418 494.729 170.62C491.993 171.74 485.401 176.251 490.943 178.971C493.062 180.012 498.972 181.275 505.932 180.776C517.78 179.924 536.75 177.404 525.882 160.501" fill="#D5EAF5"/>
<path d="M485.716 349.89C485.668 347.647 490.166 346.634 493.026 346.01C492.256 346.481 491.325 347.16 492.552 347.468C494.347 347.921 498.264 347.324 499.402 346.092C499.853 346.993 499.984 348.247 499.99 349.111C499.993 350.225 485.738 350.843 485.716 349.89" fill="#30193B"/>
<path d="M492.553 347.471C491.326 347.163 490.934 346.369 492.796 346.056C494.455 345.776 495.803 345.182 496.105 345.051C496.884 344.71 497.155 343.526 497.155 343.526L498.655 343.469L499.404 346.095C498.265 347.328 494.349 347.924 492.553 347.471Z" fill="#FF97A6"/>
<path d="M544.277 350.314C544.325 348.15 539.989 347.173 537.231 346.57C537.974 347.027 538.875 347.681 537.688 347.976C535.956 348.412 532.182 347.839 531.084 346.652C530.645 347.52 530.521 348.728 530.518 349.562C530.515 350.633 544.259 351.233 544.277 350.314" fill="#30193B"/>
<path d="M537.688 347.976C538.875 347.681 539.249 346.914 537.457 346.612C535.853 346.342 534.553 345.772 534.264 345.648C533.516 345.316 533.254 344.175 533.254 344.175L531.805 344.12L531.084 346.652C532.183 347.839 535.956 348.411 537.688 347.976" fill="#FF97A6"/>
<path d="M516.378 133.712C516.378 133.712 515.359 141.616 514.546 142.304C513.737 142.992 511.332 143.518 510.678 141.281C510.02 139.05 513.143 132.781 513.143 132.781L516.378 133.712Z" fill="#FF97A6"/>
<path d="M515.453 139.426C514.025 139.721 512.217 139.593 510.924 138.458C511.292 137.07 511.895 135.558 512.382 134.438L516.125 135.518C515.955 136.647 515.717 138.126 515.453 139.426" fill="#C95D77"/>
<path d="M509.113 130.832C508.992 130.005 509.923 127.308 510.769 125.071C511.475 123.218 513.611 122.302 515.492 123.032C518.411 124.167 521.57 125.595 522.261 126.453C523.341 127.804 522.699 129.767 522.255 131.24C521.81 132.704 520.477 135.178 519.163 136.104C517.961 136.953 515.227 137.166 513.879 136.7C509.828 135.306 509.016 133.903 509.113 130.832Z" fill="#FF97A6"/>
<path d="M525.02 368.989H518.994V245.439H525.02V368.989Z" fill="#AACBE8"/>
<path d="M485.702 170.597C485.742 171.726 485.964 172.846 486.39 173.89C486.816 174.934 487.428 175.893 488.186 176.721C488.937 177.552 489.853 178.236 490.827 178.769C491.813 179.302 492.891 179.642 493.992 179.807H493.995L494.002 179.81C497.282 180.51 500.654 180.753 504.005 180.647C507.347 180.479 510.713 180.141 514.021 179.603C517.314 179.04 520.628 178.294 523.574 176.763C525.026 175.987 526.414 175.026 527.366 173.711C527.868 173.072 528.2 172.329 528.468 171.571C528.672 170.795 528.818 169.995 528.772 169.179C528.739 167.554 528.261 165.947 527.607 164.434C527.299 163.665 526.885 162.943 526.505 162.201L525.863 161.132L525.699 160.865L525.619 160.731L525.668 160.77L525.738 160.801L525.221 160.862C521.992 161.592 518.769 162.697 515.57 163.71C509.17 165.804 502.794 167.989 496.445 170.232L496.439 170.235L496.132 170.086L496.12 170.028C495.733 165.652 495.535 161.242 495.861 156.85C496.025 154.659 496.318 152.465 496.878 150.337C497.438 148.222 498.268 146.116 499.702 144.439C498.308 146.15 497.532 148.256 497.021 150.374C496.515 152.501 496.275 154.686 496.153 156.869C495.934 161.239 496.15 165.624 496.604 169.983L496.278 169.779C502.599 167.426 508.969 165.226 515.372 163.101C518.592 162.07 521.754 160.962 525.096 160.192C525.321 160.158 525.504 160.104 525.829 160.125L526.052 160.201L526.198 160.359L526.28 160.496L526.447 160.77L527.108 161.863C527.503 162.618 527.923 163.363 528.243 164.161C528.912 165.734 529.412 167.417 529.442 169.167C529.485 170.043 529.326 170.92 529.098 171.766C528.803 172.594 528.432 173.406 527.884 174.097C526.843 175.519 525.373 176.517 523.866 177.317C520.802 178.888 517.442 179.627 514.112 180.175C510.759 180.677 507.402 180.969 504.014 181.094C500.63 181.155 497.231 180.893 493.932 180.102L493.944 180.105C492.815 179.913 491.713 179.536 490.721 178.97C489.723 178.395 488.825 177.685 488.073 176.821C487.324 175.966 486.725 174.98 486.32 173.918C485.912 172.856 485.714 171.726 485.702 170.597" fill="#DCF1F9"/>
<path d="M341.614 132.994C342.899 136.123 348.742 146.461 368.287 140.459C368.287 140.459 383.3 134.519 384.195 124.874C384.255 124.241 383.656 123.736 383.038 123.9C380.911 124.479 376.218 124.813 371.403 118.982C364.887 111.084 359.68 103.436 353.764 114.347C353.764 114.347 347.467 112.822 346.931 121.496C346.426 129.634 346.191 131.551 342.162 132.054C341.712 132.111 341.444 132.577 341.614 132.994" fill="#FFCB48"/>
<path d="M361.132 109.104C360.331 108.949 359.497 108.961 358.758 109.257C358.015 109.537 357.379 110.027 356.816 110.583C355.693 111.713 354.865 113.113 354.132 114.546L353.998 114.808L353.666 114.756C352.732 114.601 351.682 114.707 350.802 115.082C349.911 115.456 349.18 116.132 348.663 116.965C348.173 117.821 347.841 118.782 347.649 119.79C347.461 120.791 347.403 121.835 347.315 122.909C347.12 125.034 347.004 127.191 346.313 129.31C346.137 129.836 345.866 130.344 345.516 130.801C345.132 131.245 344.636 131.556 344.119 131.763C343.592 131.939 343.057 132.061 342.518 132.103C342.241 132.14 341.982 132.119 341.8 132.292L341.614 132.995L341.721 132.216L342.485 131.899C343.008 131.805 343.504 131.632 343.973 131.425C344.426 131.187 344.804 130.865 345.105 130.478C345.376 130.064 345.589 129.611 345.717 129.115C345.997 128.132 346.091 127.073 346.173 126.026C346.258 124.973 346.319 123.908 346.374 122.848C346.459 120.761 346.609 118.42 347.814 116.436C348.428 115.468 349.338 114.619 350.443 114.205C351.545 113.791 352.698 113.691 353.864 113.94L353.395 114.147C354.244 112.723 355.188 111.32 356.457 110.197C357.096 109.643 357.851 109.199 358.672 108.977C359.488 108.739 360.365 108.83 361.132 109.104" fill="#FCD98B"/>
<path d="M337.709 194.832C343.135 184.171 349.408 178.03 351.587 177.108C357.926 177.397 380.374 180.939 382.907 181.037C384.985 182.138 386.896 188.895 390.381 200.837C398.802 229.713 389.292 348.485 389.292 348.485L386.963 348.33C386.963 348.33 378.436 296.747 370.553 259.955C365.547 236.591 358.742 214.1 358.547 213.814C355.072 224.034 356.398 328.164 352.95 346.269C352.366 349.328 351.596 349.197 351.346 346.692C349.593 328.967 323.944 221.879 337.709 194.832Z" fill="#FF97A6"/>
<path d="M383.111 180.471C383.111 180.471 370.076 191.491 343.416 182.909C343.416 182.909 330.707 194.982 330.341 220.538C329.995 244.696 338.41 272.279 338.41 272.279C338.41 272.279 367.316 278.414 393.86 276.987C393.86 276.987 412.766 216.676 383.111 180.471Z" fill="#4A4A4B"/>
<path d="M339.505 353.21C339.454 350.913 344.113 349.875 347.077 349.239C346.28 349.726 345.312 350.416 346.584 350.733C348.444 351.192 352.498 350.587 353.682 349.324C354.147 350.246 354.284 351.527 354.287 352.413C354.293 353.554 339.527 354.184 339.505 353.21Z" fill="#30193B"/>
<path d="M346.583 350.733C345.311 350.416 344.906 349.604 346.835 349.281C348.555 348.992 349.952 348.389 350.262 348.255C351.069 347.905 351.346 346.694 351.346 346.694L352.901 346.633L353.68 349.324C352.496 350.587 348.442 351.192 346.583 350.733" fill="#FF97A6"/>
<path d="M400.159 353.642C400.204 351.426 395.715 350.428 392.857 349.813C393.627 350.279 394.559 350.948 393.332 351.253C391.537 351.697 387.629 351.113 386.491 349.895C386.04 350.781 385.909 352.02 385.906 352.875C385.9 353.974 400.137 354.582 400.159 353.642" fill="#30193B"/>
<path d="M393.332 351.249C394.558 350.945 394.948 350.16 393.088 349.852C391.43 349.575 390.084 348.988 389.786 348.86C389.007 348.525 388.739 347.357 388.739 347.357L387.239 347.299L386.49 349.892C387.628 351.109 391.536 351.694 393.332 351.249" fill="#FF97A6"/>
<path d="M383.11 180.469L363.76 186.66C363.76 186.66 377.818 196.532 378.63 220.487C379.671 251.189 361.6 275.807 361.6 275.807C361.6 275.807 382.757 277.581 393.86 276.985C393.86 276.985 412.765 216.674 383.11 180.469Z" fill="#353536"/>
<path d="M318.484 163.052C316.186 162.459 313.005 179.684 325.541 184.648C325.541 184.648 341.151 188.346 343.857 160.021L332.042 174.218C332.042 174.218 322.434 164.069 318.611 163.083L318.484 163.052" fill="#AACBE8"/>
<path d="M340.136 149.599L344.196 168.895L343.416 182.909C343.416 182.909 348.621 186.272 363.762 186.662C376.812 186.997 383.419 180.691 383.334 181.117C382.804 183.713 391.341 143.756 384.046 139.507C378.358 136.196 369.194 135.043 355.794 136.674C348.965 137.505 340.352 142.965 340.136 149.599" fill="#AACBE8"/>
<path d="M348.48 170.589L324.474 176.001C324.139 176.077 323.804 175.876 323.725 175.55L315.563 141.89C315.481 141.564 315.691 141.245 316.025 141.166L340.035 135.758C340.367 135.681 340.701 135.882 340.783 136.205L348.946 169.865C349.025 170.188 348.815 170.513 348.48 170.589" fill="#4A4A4B"/>
<path d="M346.94 170.936L324.474 176.001C324.139 176.077 323.804 175.876 323.725 175.55L315.748 142.666C315.672 142.343 315.879 142.021 316.214 141.945L338.68 136.881C339.018 136.808 339.353 137.005 339.429 137.331L347.406 170.212C347.485 170.538 347.278 170.86 346.94 170.936" fill="#3B2B5B"/>
<path d="M321.668 157.356C321.884 156.942 322.115 156.352 321.853 156.178L321.543 156.261L321.531 156.218L321.327 155.275C321.074 155.229 320.721 155.372 320.377 155.57L320.261 155.472C319.586 155.591 319.096 156.145 318.791 156.608L318.463 157.195L318.435 157.253L318.445 157.247C317.921 158.991 318.831 162.704 319.51 163.473C320.009 164.033 319.528 165.156 319.872 165.485C320.484 166.088 321.314 165.503 321.314 165.503L320.958 161.8C320.958 161.8 321.64 159.103 321.668 157.356" fill="#FF97A6"/>
<path d="M360.325 129.74C360.325 129.74 361.278 137.812 361.987 138.572C362.699 139.33 364.793 140.051 365.347 137.845C365.901 135.639 363.131 129.059 363.131 129.059L360.325 129.74Z" fill="#FF97A6"/>
<path d="M361.176 135.587C362.421 135.998 363.992 136.013 365.109 134.969C364.777 133.533 364.241 131.959 363.809 130.79L360.559 131.585C360.717 132.741 360.936 134.254 361.176 135.587" fill="#C95D77"/>
<path d="M367.301 127.234C367.46 126.397 366.611 123.6 365.825 121.278C365.174 119.354 363.001 118.332 361.023 119.008C357.955 120.057 354.629 121.391 353.877 122.24C352.705 123.582 353.287 125.615 353.685 127.136C354.081 128.655 355.359 131.239 356.68 132.237C357.891 133.147 360.709 133.476 362.122 133.053C366.376 131.784 367.274 130.378 367.301 127.234" fill="#FF97A6"/>
<path d="M378.346 137.227C378.346 137.227 408.743 147.076 414.371 160.022C418.567 169.673 406.473 195.25 394.345 197.246C389.835 197.989 387.811 191.275 387.811 191.275L400.885 162.929L375.549 145.155L378.346 137.227" fill="#90B5DD"/>
<path d="M389.213 190.857C389.213 190.857 384.888 187.46 383.409 188.58C381.927 189.7 379.453 191.459 379.772 192.193C380.092 192.923 381.884 191.596 381.884 191.596C381.884 191.596 381.312 193.465 381.343 193.839C381.373 194.217 382.447 193.76 382.447 193.76C382.447 193.76 382.228 194.278 382.724 194.746C383.218 195.215 383.86 193.651 384.623 193.279C385.387 192.908 388.416 193.873 389.989 193.197C390.57 192.948 390.452 191.739 389.213 190.857" fill="#FF97A6"/>
<path d="M363.763 186.665C363.763 186.665 369.731 186.954 375.154 185.38C379.382 184.151 383.374 180.934 383.335 181.12C382.805 183.716 391.315 143.801 384.047 139.51C378.797 136.415 371.596 136.126 371.596 136.126C371.596 136.126 377.394 150.375 375.55 162.077C373.249 176.655 363.763 186.665 363.763 186.665" fill="#90B5DD"/>
<path d="M441.717 363.266C442.313 359.036 436.75 359.422 433.561 358.698C434.419 359.252 435.463 360.052 434.096 360.421C432.1 360.962 427.739 360.274 426.463 358.82C425.964 359.885 425.821 361.376 425.821 362.399C425.821 363.716 441.559 364.383 441.717 363.266" fill="#30193B"/>
<path d="M434.098 360.421C435.464 360.053 435.896 359.113 433.821 358.744C431.974 358.419 430.467 357.725 430.135 357.573C429.265 357.171 428.96 355.771 428.96 355.771L427.29 355.704C427.29 355.704 426.611 358.51 426.465 358.82C427.74 360.275 432.101 360.963 434.098 360.421" fill="#FF97A6"/>
<path d="M474.169 361.954C474.769 357.727 469.202 358.113 466.016 357.386C466.871 357.946 467.915 358.743 466.552 359.114C464.552 359.653 460.191 358.968 458.916 357.51C458.417 358.579 458.276 360.064 458.273 361.087C458.273 362.408 474.011 363.071 474.169 361.954" fill="#30193B"/>
<path d="M466.552 359.116C467.915 358.745 468.347 357.801 466.275 357.439C464.424 357.11 462.921 356.416 462.586 356.264C461.716 355.862 461.412 354.462 461.412 354.462L459.741 354.399C459.741 354.399 459.062 357.205 458.916 357.512C460.191 358.97 464.552 359.654 466.552 359.116" fill="#FF97A6"/>
<path d="M405.068 221.889C405.068 221.889 389.118 233.965 388.549 244.212C387.983 254.456 386.205 269.065 404.302 268.76C419.777 268.502 443.412 271.91 443.412 271.91L437.886 224.4L405.068 221.889" fill="#3B2B5B"/>
<path d="M389.247 359.954H393.776V277.554H389.247V359.954Z" fill="#AACBE8"/>
<path d="M444.752 356.949H449.281V275.809H444.752V356.949Z" fill="#AACBE8"/>
<path d="M389.232 279.854H447.352C450.736 279.854 453.475 277.112 453.475 273.731C453.475 270.35 450.736 267.608 447.352 267.608H389.232C385.848 267.608 383.105 270.35 383.105 273.731C383.105 277.112 385.848 279.854 389.232 279.854Z" fill="#1AADA4"/>
<path d="M459.992 355.274L458.412 355.368C457.983 355.396 457.603 355.101 457.517 354.681C455.868 346.196 440.992 266.857 457.983 247.315C461.614 243.137 472.546 239.804 477.29 249.151C482.312 259.029 466.349 337.263 463.166 352.532C462.846 354.06 461.547 355.18 459.992 355.274" fill="#30193B"/>
<path d="M454.608 268.691L435.9 267.644L433.164 241.288L473.206 243.148L467.208 270.742L454.608 268.691Z" fill="#30193B"/>
<path d="M430.114 355.985H425.095C425.095 355.985 407.133 268.055 425.089 247.4C428.72 243.221 439.652 239.892 444.4 249.235C449.963 260.188 430.114 355.985 430.114 355.985Z" fill="#3B2B5B"/>
<path d="M206.759 129.977H47.2722C43.2793 129.977 40.041 133.215 40.041 137.208V349.245C40.041 353.238 43.2793 356.477 47.2722 356.477H206.759C210.749 356.477 213.99 353.238 213.99 349.245V137.208C213.99 133.215 210.749 129.977 206.759 129.977ZM206.759 134.618C208.183 134.618 209.346 135.781 209.346 137.208V349.245C209.346 350.673 208.183 351.835 206.759 351.835H47.2722C45.8449 351.835 44.6822 350.673 44.6822 349.245V137.208C44.6822 135.781 45.8449 134.618 47.2722 134.618H206.759Z" fill="#F18826"/>
<path d="M55.3486 180.479H49.5723V136.008H55.3486V180.479Z" fill="#4A4A4B"/>
<path d="M138.02 180.479H132.243V136.008H138.02V180.479Z" fill="#4A4A4B"/>
<path d="M144.475 180.354L138.948 178.671L151.892 136.128L157.419 137.808L144.475 180.354Z" fill="#4A4A4B"/>
<path d="M132.243 180.479H126.628V137.22H132.243V180.479Z" fill="#FFE5B0"/>
<path d="M111.644 242.59H106.025V199.334H111.644V242.59Z" fill="#FFE5B0"/>
<path d="M116.161 242.59H111.642V193.865H116.161V242.59Z" fill="#FFCB48"/>
<path d="M121.232 242.59H115.614V199.334H121.232V242.59Z" fill="#FFE5B0"/>
<path d="M127.247 242.201L121.82 240.731L133.127 198.976L138.55 200.443L127.247 242.201" fill="#FFE5B0"/>
<path d="M144.011 242.59H139.491V193.865H144.011V242.59Z" fill="#FFCB48"/>
<path d="M150.359 242.401H144.014V198.771H150.359V242.401" fill="#F18826"/>
<path d="M64.414 180.479H55.3477V142.737H64.414V180.479Z" fill="#1AADA4"/>
<path d="M90.1501 180.479H81.0869V149.418H90.1501V180.479Z" fill="#D5EAF5"/>
<path d="M99.2189 180.479H90.1494V147.509H99.2189V180.479Z" fill="#AACBE8"/>
<path d="M108.283 180.479H99.2197V145.348H108.283V180.479Z" fill="#D5EAF5"/>
<path d="M117.353 180.479H108.283V139.344H117.353V180.479Z" fill="#AACBE8"/>
<path d="M55.3485 242.215H46.2822V200.526H55.3485V242.215Z" fill="#3B2B5B"/>
<path d="M64.414 242.215H55.3477V193.487H64.414V242.215Z" fill="#4A4A4B"/>
<path d="M73.4814 242.215H64.415V200.526H73.4814V242.215Z" fill="#3B2B5B"/>
<path d="M92.9692 239.734L84.1799 241.965L72.1768 194.74L80.9661 192.503L92.9692 239.734Z" fill="#4A4A4B"/>
<path d="M80.33 178.78L76.0327 180.22L64.0234 144.438L68.3206 142.996L80.33 178.78Z" fill="#AACBE8"/>
<path d="M213.988 185.4H41.5244V180.762H213.988V185.4Z" fill="#F18826"/>
<path d="M213.988 247.024H41.5244V242.386H213.988V247.024Z" fill="#F18826"/>
<path d="M213.988 308.649H41.5244V304.008H213.988V308.649Z" fill="#F18826"/>
<path d="M162.3 306.331H157.659V131.929H162.3V306.331Z" fill="#F18826"/>
<path d="M100.675 306.331H96.0371V183.082H100.675V306.331Z" fill="#F18826"/>
<path d="M200.016 154.451C200.497 153.602 201.504 151.828 201.343 150.793L201.191 150.711C198.993 148.684 194.398 151.797 192.87 153.298C190.794 155.358 189.93 157.92 189.906 160.605L190 160.453C191.857 157.653 194.453 154.667 197.895 153.316L198.226 153.696C195.329 156.006 192.642 158.109 190.667 161.15L190.49 161.436C193.168 160.796 195.6 159.448 197.493 157.662C198.497 156.709 199.349 155.62 200.016 154.451ZM202.289 150.419C202.932 151.432 201.9 153.221 201.428 154.177C200.759 155.562 199.83 156.834 198.698 157.96C196.942 159.701 193.114 162.598 190.168 161.959C188.326 165.036 187.185 168.344 186.01 171.652L185.709 171.582C186.29 168.143 187.447 164.722 189.273 161.624L189.258 161.594C188.518 157.714 190.271 153.772 193.783 151.344C195.177 150.385 200.686 147.576 201.772 150.205L202.289 150.419Z" fill="#1AADA4"/>
<path d="M201.343 150.791C201.505 151.826 200.497 153.6 200.016 154.449C199.35 155.618 198.498 156.707 197.494 157.66C195.601 159.446 193.169 160.794 190.491 161.434L190.667 161.148C192.642 158.107 195.33 156.004 198.227 153.694L197.895 153.314C194.453 154.665 191.857 157.651 190.001 160.451L189.906 160.603C189.931 157.918 190.795 155.356 192.87 153.296C194.398 151.795 198.994 148.682 201.191 150.709L201.343 150.791Z" fill="#34697A"/>
<path d="M187.313 153.991C187.746 150.646 187.77 147.445 186.671 143.981C186.011 141.899 185.107 139.355 183.217 137.87C180.642 135.867 178.597 137.42 177.404 139.468C176.229 142.319 177.018 146.252 177.922 148.747C179.288 152.512 182.313 155.692 186.537 157.092C186.51 156.234 186.461 155.379 186.352 154.505C185.725 149.432 183.823 144.556 180.609 140.302C180.238 139.809 181.141 139.349 181.504 139.839C184.617 143.981 186.562 148.911 187.313 153.991ZM185.74 139.191C189.088 144.307 190.253 152.04 187.694 157.597L187.642 157.673C187.785 161.858 187.134 166.052 185.64 169.89L185.286 169.853C185.877 165.903 186.562 162.074 186.562 158.154C181.647 156.66 178.235 153.041 176.799 148.68C175.928 146.054 175.21 141.985 176.637 139.154C177.094 137.806 177.931 136.604 179.492 136.175C182.185 135.423 184.51 137.298 185.74 139.191" fill="#1AADA4"/>
<path d="M186.671 143.985C187.77 147.448 187.746 150.65 187.314 153.994C186.562 148.915 184.617 143.985 181.504 139.843C181.142 139.353 180.238 139.812 180.609 140.305C183.823 144.56 185.725 149.435 186.352 154.509C186.461 155.382 186.51 156.237 186.538 157.096C182.313 155.696 179.288 152.515 177.922 148.751C177.018 146.255 176.229 142.323 177.404 139.471C178.597 137.423 180.642 135.871 183.217 137.874C185.107 139.359 186.011 141.903 186.671 143.985Z" fill="#34697A"/>
<path d="M182.339 164.638C181.919 162.091 181.292 159.796 179.517 157.592C177.49 155.051 172.871 151.177 169.879 154.762L169.712 154.835C169.136 157.191 171.206 160.876 172.39 162.158C174.907 164.875 178.005 165.445 181.596 165.682C180.583 164.185 179.368 162.806 177.786 161.549C177.213 161.092 178.057 160.356 178.632 160.8C180.017 161.905 181.301 163.208 182.339 164.638V164.638ZM184.645 169.806C184.712 170.201 184.146 170.335 183.976 169.973C183.413 168.759 182.819 167.605 182.147 166.516C177.77 167.401 172.779 164.772 170.625 161.525C169.486 159.811 167.931 155.639 169.66 153.718C170.11 152.854 171.334 152.33 172.432 152.267C174.474 152.133 176.437 153.359 177.904 154.47C181.359 157.078 184.174 161.628 183.571 165.746L183.303 166.126C183.952 167.298 184.426 168.534 184.645 169.806" fill="#1AADA4"/>
<path d="M179.516 157.592C181.29 159.796 181.917 162.09 182.337 164.638C181.299 163.207 180.015 161.905 178.631 160.8C178.055 160.356 177.212 161.092 177.784 161.549C179.367 162.806 180.581 164.184 181.595 165.682C178.003 165.444 174.905 164.875 172.388 162.157C171.205 160.876 169.135 157.191 169.71 154.835L169.878 154.762C172.869 151.177 177.489 155.051 179.516 157.592" fill="#34697A"/>
<path d="M190.562 180.479H180.159L177.7 169.367H192.783L190.562 180.479Z" fill="#4A4A4B"/>
<path d="M190.595 180.238C188.465 180.238 186.334 180.238 184.201 180.238C183.267 180.238 181.45 180.6 180.576 180.238C180.263 180.107 180.467 180.454 180.302 179.514C179.855 176.936 179.164 174.376 178.601 171.826C178.452 171.147 178.023 170.122 178.071 169.428C178.096 169.056 177.39 169.778 177.938 169.607H178.848C181.307 169.863 183.921 169.607 186.395 169.607C187.801 169.607 189.207 169.607 190.613 169.607C191.039 169.607 192.284 169.373 192.631 169.607C192.287 169.373 192.318 170.027 192.196 170.624C191.928 171.969 191.66 173.317 191.389 174.662C191 176.61 190.61 178.558 190.224 180.506C190.16 180.831 190.845 180.746 190.905 180.451C191.642 176.75 192.382 173.043 193.121 169.339L192.814 169.126C187.786 169.126 182.758 169.126 177.734 169.126L177.362 169.455C178.184 173.162 179.003 176.866 179.825 180.57L180.132 180.719C183.595 180.719 187.065 180.719 190.534 180.719C190.912 180.719 191.048 180.238 190.595 180.238" fill="#4A4A4B"/>
<path d="M94.6843 303.597H50.8135V291.87H94.6843V303.597Z" fill="#1AADA4"/>
<path d="M90.1517 291.874H44.7959V283.751H90.1517V291.874Z" fill="#4A4A4B"/>
<path d="M95.4121 283.75H50.7988V279.69H95.4121V283.75Z" fill="#3B2B5B"/>
<path d="M92.7398 279.69H47.3779V275.631H92.7398V279.69Z" fill="#1AADA4"/>
<path d="M552.343 162.825C552.154 162.412 551.951 161.83 552.212 161.669L552.508 161.763L552.523 161.718L552.754 160.805C553 160.774 553.338 160.923 553.661 161.13L553.777 161.042C554.425 161.176 554.875 161.739 555.149 162.198L555.447 162.786L555.469 162.847L555.46 162.838C555.895 164.56 554.869 168.148 554.184 168.879C553.685 169.405 554.102 170.519 553.761 170.827C553.143 171.39 552.364 170.793 552.364 170.793L552.854 167.187C552.854 167.187 552.307 164.533 552.343 162.825" fill="#FF97A6"/>
<path d="M263.94 360.314H268.469V279.177H263.94V360.314Z" fill="#AACBE8"/>
<path d="M315.675 360.314H320.203V279.177H315.675V360.314Z" fill="#AACBE8"/>
<path d="M262.032 283.825H320.155C323.54 283.825 326.279 281.083 326.279 277.702C326.279 274.321 323.54 271.579 320.155 271.579H262.032C258.651 271.579 255.909 274.321 255.909 277.702C255.909 281.083 258.651 283.825 262.032 283.825Z" fill="#1AADA4"/>
<path d="M336.557 365.076C337.47 361.278 332.029 361.981 328.967 360.904C329.871 361.53 330.754 362.404 329.278 362.757C327.12 363.278 322.476 362.41 321.155 360.812C320.589 361.939 320.394 363.527 320.36 364.622C320.321 366.035 335.921 367.727 336.557 365.076" fill="#3B2B5B"/>
<path d="M329.276 362.757C330.752 362.404 329.87 361.53 328.966 360.904C327.07 360.24 325.469 359.757 325.119 359.586C324.2 359.13 323.971 358.253 323.971 358.253L323.007 358.01C323.007 358.01 321.318 360.486 321.153 360.812C322.474 362.41 327.118 363.278 329.276 362.757" fill="#87535A"/>
<path d="M314.624 366.726C315.757 362.984 310.285 363.37 307.293 362.12C308.157 362.795 308.985 363.714 307.494 363.985C305.309 364.377 300.722 363.24 299.496 361.568C298.863 362.664 298.58 364.237 298.482 365.329C298.357 366.732 313.836 369.332 314.624 366.726" fill="#3B2B5B"/>
<path d="M307.494 363.981C308.986 363.71 308.158 362.791 307.293 362.116C305.434 361.339 303.869 360.766 303.529 360.573C302.64 360.064 302.46 359.178 302.46 359.178L301.511 358.877C301.511 358.877 299.682 361.25 299.496 361.564C300.723 363.235 305.309 364.373 307.494 363.981" fill="#87535A"/>
<path d="M288.009 233.988C284.506 247.242 283.988 245.577 282.859 259.72C281.316 279.164 321.921 269.632 321.921 269.632C321.921 269.632 321.091 346.715 321.745 358.792C321.745 358.792 327.737 359.452 328.51 357.459C332.692 346.67 345.143 300.419 349.516 262.854C352.371 238.294 311.09 246.225 311.09 246.225L312.341 234.365C312.341 234.365 299.294 233.814 288.009 233.988" fill="#353536"/>
<path d="M264.93 234.113C261.427 247.364 259.087 248.414 258.371 262.587C257.27 284.393 304.625 272.055 304.625 272.055C304.625 272.055 298.009 346.838 298.666 358.917C298.849 362.301 304.926 358.975 306.059 354.936C309.172 343.797 325.585 299.933 329.955 262.365C332.813 237.808 288.011 246.35 288.011 246.35L289.262 234.487C289.262 234.487 276.215 233.939 264.93 234.113Z" fill="#4A4A4B"/>
<path d="M309.171 238.142C302.025 243.918 262.37 252.278 256.864 233.181C255.437 228.223 257.725 224.401 257.725 224.401L304.442 229.386C304.442 229.386 317.775 231.184 309.171 238.142" fill="#AACBE8"/>
<path d="M242.728 370.189H236.699V246.183H242.728V370.189Z" fill="#AACBE8"/>
<path d="M306.098 177.503C305.222 173.144 316.151 175.311 320.445 186.898C326.885 204.269 323.902 232.877 312.757 239.835C304.431 245.033 306.05 228.498 306.05 228.498C306.05 228.498 308.968 213.704 308.789 202.057C308.6 189.853 306.165 177.831 306.098 177.503" fill="#90B5DD"/>
<path d="M300.955 164.304C300.985 164.154 303.231 153.311 303.231 151.896C303.231 150.316 303.335 148.189 302.446 146.271C300.833 142.784 294.427 140.574 290.848 143.149C288.921 144.537 286.35 149.342 283.011 146.244C283.011 146.244 281.498 143.481 281.739 146.862C282.04 151.101 284.167 152.599 284.167 152.599L283.894 165.168C284.061 165.393 300.246 167.773 300.955 164.304Z" fill="#3B2B5B"/>
<path d="M314.33 181.301C307.799 176.63 315.66 175.44 287.764 175.248C283.631 175.218 269.476 175.248 261.228 182.15C257.951 184.896 266.567 239.193 265.587 241.792C276.801 252.809 314.156 241.235 319.507 240.152C320.523 237.236 314.33 181.301 314.33 181.301" fill="#AACBE8"/>
<path d="M270.368 180.757C271.244 176.396 260.315 178.566 256.021 190.149C249.581 207.521 252.564 236.132 263.709 243.089C272.036 248.288 270.419 231.753 270.419 231.753C270.419 231.753 267.501 216.959 267.677 205.309C267.866 193.108 270.304 181.086 270.368 180.757" fill="#AACBE8"/>
<path d="M290.074 177.5C290.074 177.5 295.987 185.124 294.055 198.883C292.372 210.874 286.836 224.84 284.066 227.305L301.666 228.934H315.359L316.235 181.968C316.235 181.968 315.121 174.819 303.553 175.199C291.988 175.58 290.074 175.16 290.074 175.16V177.5Z" fill="#90B5DD"/>
<path d="M365.385 236.92H291.637V197.715C291.637 193.707 294.887 190.459 298.892 190.459H358.126C362.134 190.459 365.385 193.707 365.385 197.715V236.92" fill="#3B2B5B"/>
<path d="M268.417 193.837C268.36 196.509 268.347 199.181 268.344 201.85C268.332 204.516 268.408 207.185 268.5 209.845C268.588 212.508 268.737 215.168 269.035 217.803C269.346 220.436 269.671 223.081 270.402 225.607L270.046 225.311C273.177 225.68 276.297 226.1 279.419 226.553C280.975 226.775 282.536 226.998 284.091 227.262C285.646 227.53 287.21 227.746 288.738 228.136C287.183 227.898 285.613 227.767 284.045 227.606L279.346 227.131C276.212 226.824 273.08 226.501 269.948 226.148L269.595 225.847C268.822 223.242 268.402 220.57 268.137 217.898C267.866 215.223 267.751 212.541 267.696 209.866C267.635 207.188 267.72 204.51 267.824 201.838C267.94 199.166 268.128 196.493 268.417 193.837" fill="#B7D6ED"/>
<path d="M294.576 166.646C294.576 166.646 294.363 177.429 293.055 178.323C291.746 179.215 287.57 179.787 285.948 176.68C284.326 173.573 288.617 165.167 288.617 165.167L294.576 166.646" fill="#87535A"/>
<path d="M293.881 175.914C291.389 176.231 288.117 175.719 285.582 174.082C285.959 172.198 286.954 168.896 287.597 167.393L294.49 169.106C294.417 170.649 294.088 174.149 293.881 175.914" fill="#70454B"/>
<path d="M285.621 163.74C285.237 162.632 285.715 159.504 286.09 157.477C286.385 155.897 287.52 154.573 289.069 154.147C292.925 153.091 298.525 154.762 299.63 155.724C301.17 157.066 300.877 159.507 300.707 161.324C300.53 163.137 298.178 172.058 292.341 171.029C285.983 169.912 286.199 167.356 285.621 163.74" fill="#87535A"/>
<path d="M282.948 162.995C283.325 161.163 283.906 154.851 284.068 154.955C284.366 155.146 285.684 157.864 285.851 158.001C285.961 158.095 285.714 164.167 286.067 165.168C286.858 167.393 290.456 168.741 293.889 168.86C298.134 169.006 298.892 166.939 299.586 165.308C299.723 164.986 300.52 162.648 300.59 162.058C300.63 161.683 300.837 162.566 300.946 162.95C301.71 165.609 302.782 168.26 301.601 171.696C299.665 177.33 280.023 177.229 282.948 162.995Z" fill="#3B2B5B"/>
<path d="M334.55 211.387C334.55 213.852 332.554 215.849 330.086 215.849C327.621 215.849 325.621 213.852 325.621 211.387C325.621 208.922 327.621 206.922 330.086 206.922C332.554 206.922 334.55 208.922 334.55 211.387Z" fill="#4A4A4B"/>
<path d="M441.711 200.247L440.929 221.889L440.351 242.456C440.351 242.456 428.226 245.688 418.012 244.906C404.886 243.905 392.892 238.829 392.39 238.807C391.495 238.768 382.687 194.574 390.661 189.471C396.882 185.496 409.001 184.312 423.932 185.809C431.54 186.57 441.27 192.614 441.711 200.247" fill="#D5EAF5"/>
<path d="M466.16 215.134C468.695 214.389 472.74 234.14 458.965 240.221C458.965 240.221 441.737 244.929 437.887 212.371L451.433 228.385C451.433 228.385 461.799 216.419 466.023 215.177L466.16 215.134" fill="#AACBE8"/>
<path d="M441.712 200.247L440.93 221.889L440.351 242.456L418.013 244.906C418.013 244.906 425.734 228.694 427.575 212.969C429.188 199.243 420.432 185.505 420.432 185.505C420.432 185.505 437.886 185.505 441.712 200.247" fill="#AACBE8"/>
<path d="M434.268 225.346L457.891 230.23C458.978 230.452 460.04 229.755 460.265 228.669L467.682 192.79C467.904 191.707 467.207 190.642 466.121 190.416L442.504 185.535C441.414 185.31 440.352 186.01 440.127 187.096L432.71 222.972C432.488 224.061 433.185 225.12 434.268 225.346" fill="#3B2B5B"/>
<path d="M435.95 225.696L457.89 230.23C458.976 230.452 460.038 229.755 460.264 228.669L467.495 193.679C467.72 192.595 467.02 191.53 465.937 191.308L444 186.773C442.91 186.545 441.851 187.245 441.623 188.332L434.392 223.319C434.167 224.408 434.867 225.467 435.95 225.696" fill="#4A4A4B"/>
<path d="M462.449 208.66C462.202 208.189 461.925 207.519 462.211 207.309L462.558 207.397L462.57 207.342L462.768 206.253C463.048 206.192 463.444 206.35 463.83 206.566L463.961 206.451C464.713 206.566 465.273 207.193 465.626 207.714C465.787 207.878 465.915 208.103 466.009 208.38L466.043 208.453L466.031 208.444C466.664 210.438 465.763 214.741 465.03 215.651C464.497 216.308 465.063 217.59 464.695 217.979C464.028 218.685 463.085 218.04 463.085 218.04L463.374 213.758C463.374 213.758 462.54 210.672 462.449 208.66" fill="#FF97A6"/>
<path d="M403.072 185.698C403.072 185.698 385.862 184.998 384.155 200.702C383.29 208.649 383.077 218.567 383.573 224.663C384.158 231.855 390.966 238.276 397.883 236.222L398.093 234.655C398.093 234.655 389.967 203.137 397.64 192.814C401.347 187.829 403.072 185.698 403.072 185.698" fill="#D5EAF5"/>
<path d="M424.649 210.517C424.013 209.631 392.931 223.135 389.656 224.766C386.604 226.288 383.253 230.676 389.288 234.487C392.033 236.221 395.351 236.994 403.306 235.88C416.843 233.993 438.43 229.605 424.649 210.517" fill="#D5EAF5"/>
<path d="M419.359 178.351C419.359 178.351 418.403 186.407 417.357 186.979C416.313 187.548 413.141 187.67 412.158 185.223C411.175 182.776 415.007 176.802 415.007 176.802L419.359 178.351" fill="#FF97A6"/>
<path d="M418.485 183.885C416.598 183.937 414.166 183.581 412.389 182.168C412.812 180.787 413.524 179.256 414.114 178.175L419.151 179.968C418.981 181.118 418.771 182.579 418.485 183.885" fill="#C95D77"/>
<path d="M394.994 199.625C394.894 201.491 394.833 203.353 394.818 205.216C394.815 207.078 394.809 208.944 394.891 210.8C394.973 212.66 395.089 214.519 395.329 216.358C395.551 218.199 395.853 220.028 396.352 221.799L395.923 221.595L402.341 218.78L408.796 216.038C410.951 215.131 413.1 214.209 415.266 213.336L418.526 212.03C419.628 211.61 420.672 211.163 421.852 210.816L421.807 210.831C422.476 210.551 423.192 210.386 423.925 210.478C424.287 210.523 424.649 210.651 424.945 210.88C425.246 211.117 425.428 211.443 425.587 211.744L427.574 215.402L425.413 211.85C425.237 211.546 425.057 211.266 424.795 211.08C424.531 210.895 424.217 210.797 423.892 210.767C423.24 210.715 422.562 210.898 421.965 211.163L421.916 211.178C419.786 211.933 417.616 212.934 415.483 213.844L409.046 216.622L402.618 219.419L396.175 222.177L396.169 222.18L395.758 222.018L395.743 221.976C394.76 218.318 394.504 214.55 394.45 210.813C394.416 208.944 394.453 207.075 394.553 205.21C394.651 203.344 394.775 201.481 394.994 199.625" fill="#DCF1F9"/>
<path d="M389.287 234.487C391.378 235.765 393.825 236.228 396.229 236.219C398.643 236.243 401.056 235.957 403.451 235.595C408.235 234.849 413.038 234.031 417.597 232.445C419.879 231.678 422.095 230.701 424.076 229.365C425.05 228.677 425.951 227.892 426.715 226.991C427.485 226.097 428.051 225.044 428.416 223.927C428.787 222.81 428.906 221.608 428.794 220.424C428.727 219.234 428.401 218.065 428.027 216.927C427.229 214.65 425.994 212.538 424.648 210.517C426.121 212.45 427.424 214.532 428.346 216.808C428.766 217.958 429.125 219.145 429.229 220.387C429.381 221.614 429.29 222.886 428.93 224.082C428.574 225.281 427.99 226.422 427.177 227.375C426.383 228.336 425.443 229.164 424.435 229.886C422.396 231.289 420.135 232.308 417.822 233.102C413.172 234.658 408.342 235.488 403.524 236.122C401.108 236.42 398.667 236.654 396.223 236.557C393.791 236.453 391.29 235.902 389.287 234.487" fill="#DCF1F9"/>
<path d="M424.974 173.84C424.974 173.84 430.409 169.789 431.371 164.125C431.961 160.65 431.097 157.567 430.549 156.076C430.425 155.735 429.983 155.75 429.87 156.1C429.344 157.698 428.087 160.677 426.103 160.315C423.403 159.825 413.731 151.66 411.656 161.861C411.656 161.861 404.556 161.755 410.731 176.217L424.974 173.84" fill="#80540A"/>
<path d="M430.549 156.075L429.998 156.041L429.791 156.814C429.636 157.353 429.45 157.88 429.225 158.4C428.747 159.38 428.09 160.521 426.802 160.829C426.163 160.972 425.536 160.774 425.058 160.576C424.559 160.378 424.091 160.156 423.619 159.934C422.694 159.48 421.79 159.012 420.868 158.613C419.06 157.8 417.133 157.082 415.332 157.438C414.44 157.621 413.646 158.181 413.037 158.993C412.407 159.794 412.017 160.823 411.655 161.86C411.75 160.753 412.02 159.645 412.544 158.619C413.089 157.618 414.002 156.75 415.094 156.428C417.301 155.764 419.443 156.568 421.333 157.374C422.286 157.816 423.211 158.3 424.112 158.787C424.994 159.246 425.947 159.867 426.656 159.8C427.426 159.733 428.166 158.923 428.711 158.065C429 157.633 429.258 157.164 429.49 156.68C429.62 156.428 429.687 156.209 429.855 155.92C430.083 155.643 430.497 155.783 430.549 156.075" fill="#A06B1F"/>
<path d="M410.873 175.263C410.672 174.302 411.531 171.054 412.331 168.361C412.998 166.124 415.381 164.882 417.599 165.607C421.038 166.727 424.773 168.166 425.634 169.128C426.976 170.634 426.392 172.993 425.993 174.758C425.597 176.52 424.252 179.533 422.816 180.723C421.501 181.81 418.381 182.266 416.796 181.819C412.036 180.48 410.998 178.888 410.873 175.263" fill="#FF97A6"/>
<path d="M424.976 215.249C425.18 215.727 425.6 215.991 426.017 215.897C427.085 215.663 427.438 215.994 429.45 215.571C429.45 215.571 432.575 215.724 433.272 213.794C433.272 213.794 434.191 211.04 433.942 210.142C433.863 209.859 433.202 209.378 433.202 209.378C433.202 209.378 436.252 207.458 435.652 207.053C435.046 206.648 430.469 208.27 429.091 209.451C429.091 209.451 430.557 208.085 430.067 207.631C429.577 207.178 426.589 209.689 426.147 211.028C426.147 211.028 425.274 212.275 424.717 212.747C424.337 213.067 424.608 214.385 424.976 215.249" fill="#FF97A6"/>
<path d="M580.363 246.182H179.038V236.388H580.363V246.182Z" fill="#F18826"/>
<path d="M197.578 236.223H235.821C236.78 236.223 237.556 235.447 237.556 234.488C237.556 233.532 236.78 232.756 235.821 232.756H197.578C196.622 232.756 195.846 233.532 195.846 234.488C195.846 235.447 196.622 236.223 197.578 236.223Z" fill="#3B2B5B"/>
<path d="M239.339 232.746L246.826 195.242C247.011 194.302 246.403 193.392 245.462 193.206C244.528 193.017 243.615 193.626 243.426 194.563L235.94 232.067C235.754 233.008 236.363 233.921 237.303 234.106C238.237 234.295 239.15 233.686 239.339 232.746Z" fill="#3B2B5B"/>
<path d="M168.694 202.424C168.694 202.424 181.069 195.972 176.309 185.786C174.258 181.398 172.042 182.441 172.042 182.441C172.042 182.441 172.109 171.004 159.643 167.985C147.181 164.966 140.47 184.925 140.47 184.925C140.47 184.925 129.358 183.114 125.7 194.585C125.7 194.585 124.748 199.281 126.884 202.138C126.884 202.138 118.168 211.865 126.123 218.688C134.076 225.515 145.385 213.795 145.385 213.795L168.694 202.424" fill="#80540A"/>
<path d="M208.514 361.896C208.612 359.565 204.147 358.424 201.311 357.724C202.068 358.232 202.981 358.954 201.752 359.246C199.953 359.681 196.064 358.99 194.956 357.688C194.484 358.613 194.329 359.912 194.305 360.81C194.277 361.966 208.475 362.885 208.514 361.896" fill="#30193B"/>
<path d="M201.751 359.249C202.981 358.957 203.388 358.135 201.541 357.773C199.892 357.45 198.558 356.811 198.266 356.668C197.496 356.3 197.253 355.064 197.253 355.064L195.755 354.973L194.955 357.691C196.063 358.993 199.952 359.684 201.751 359.249Z" fill="#F97A8A"/>
<path d="M135.546 267.605C136.237 254.862 141.895 246.846 141.895 246.846H167.718C167.673 246.907 170.33 252.869 170.701 253.228C181.828 263.84 226.152 255.325 226.073 272.012C225.93 302.193 197.157 355.614 197.157 355.614C195.985 355.675 195.413 357.179 195.559 353.289L196.418 289.076L168.357 287.317C162.639 287.588 152.708 287.874 143.313 286.514C137.713 285.698 134.874 279.992 135.546 267.605" fill="#F97A8A"/>
<path d="M156.353 198.491C156.353 198.491 155.312 203.661 160.794 218.501C167.264 236.019 166.573 237.869 172.115 235.666L176.425 234.025C176.425 234.025 171.388 211.218 168.962 205.487C166.254 199.093 156.353 198.491 156.353 198.491" fill="#AACBE8"/>
<path d="M204.029 226.8C203.569 225.908 201.539 224.965 200.523 225.035C189.965 225.744 177.216 227.585 172.322 226.605C169.209 225.987 156.557 235.008 162.778 239.028C165.158 240.562 173.095 242.79 177.277 242.656C193.011 242.148 213.983 246.098 204.029 226.8" fill="#AACBE8"/>
<path d="M114.708 367.996H118.85V258.33H114.708V367.996Z" fill="#AACBE8"/>
<path d="M174.353 366.837H178.498V292.59H174.353V366.837Z" fill="#AACBE8"/>
<path d="M203.663 367.559C203.767 364.972 198.915 363.706 195.832 362.926C196.654 363.489 197.649 364.29 196.313 364.619C194.353 365.099 190.126 364.33 188.918 362.887C188.407 363.913 188.239 365.355 188.215 366.35C188.181 367.635 203.618 368.654 203.663 367.559Z" fill="#30193B"/>
<path d="M196.312 364.621C197.648 364.292 198.09 363.386 196.081 362.984C194.289 362.625 192.837 361.912 192.52 361.757C191.683 361.346 191.419 359.977 191.419 359.977L189.79 359.876C189.79 359.876 189.066 362.588 188.917 362.889C190.125 364.332 194.352 365.101 196.312 364.621Z" fill="#FF97A6"/>
<path d="M124.324 262.915C125.073 248.776 131.227 239.877 131.227 239.877H159.305C159.254 239.947 162.142 246.566 162.547 246.959C174.647 258.74 226.893 254.44 224.458 271.483C219.723 304.622 191.313 360.584 191.313 360.584C190.038 360.652 189.417 362.32 189.578 358.007L197.016 283.008L159.999 284.791C153.778 285.09 142.984 285.412 132.767 283.9C126.68 282.999 123.594 276.662 124.324 262.915" fill="#FF97A6"/>
<path d="M114.74 258.326H118.849C121.119 258.326 122.957 256.488 122.957 254.221V215.725C122.957 213.457 121.119 211.619 118.849 211.619C116.581 211.619 114.74 213.457 114.74 215.725V258.326Z" fill="#1AADA4"/>
<path d="M164.354 243.677C164.354 243.677 178.287 253.742 188.917 255.54C192.664 256.176 196.629 256.84 200.138 257.458C206.523 258.584 209.74 259.494 209.74 259.494C209.74 259.494 205.09 277.301 197.731 284.376C191.668 290.208 186.689 291.647 186.689 291.647C186.689 291.647 128.405 298.528 125.018 275.128C121.631 251.724 131.856 238.984 131.856 238.984L164.354 243.677" fill="#3B2B5B"/>
<path d="M165.429 244.36C160.639 245.155 140.148 246.978 130.409 241.363C127.557 232.117 130.306 221.279 132.183 211.887C132.722 209.188 134.968 205.81 137.071 203.198C140.111 199.434 144.856 197.474 149.662 198.052C152.063 198.338 154.431 198.615 155.608 198.737C163.969 199.601 163.862 199.851 167.417 204.187C170.427 207.864 165.408 244.035 165.429 244.36" fill="#D5EAF5"/>
<path d="M120.343 295.409H183.883C186.978 295.409 189.486 292.901 189.486 289.806C189.486 286.714 186.978 284.203 183.883 284.203H120.343C117.248 284.203 114.74 286.714 114.74 289.806C114.74 292.901 117.248 295.409 120.343 295.409Z" fill="#1AADA4"/>
<path d="M188.918 255.54C188.918 255.54 163.584 252.962 154.503 245.284C154.503 245.284 159.287 245.211 165.429 244.359C165.429 244.359 181.023 254.204 188.918 255.54Z" fill="#30193B"/>
<path d="M165.429 244.355C162.011 245.022 154.503 245.28 154.503 245.28C154.503 245.28 160.97 234.969 162.303 222.668C164.245 204.815 156.722 198.677 157.282 198.731C158.971 198.908 158.642 199.057 159.741 199.218C164.074 199.864 164.58 200.722 167.416 204.182C170.426 207.859 165.407 244.029 165.429 244.355" fill="#AACBE8"/>
<path d="M142.68 201.274C140.902 201.52 139.585 203.021 139.551 204.819C139.49 207.86 140.251 213.359 144.442 221.866C152.717 238.662 155.045 239.42 155.045 239.42L166.424 233.196C166.424 233.196 149.862 211.299 149.643 205.081C149.5 201.049 145.486 200.887 142.68 201.274" fill="#D5EAF5"/>
<path d="M202.177 227.858C201.715 226.966 200.741 226.467 199.736 226.646C192.505 227.952 165.139 231.075 160.242 230.101C157.132 229.48 149.895 236.242 156.118 240.266C158.495 241.803 171.244 243.848 175.426 243.714C191.16 243.206 212.129 247.153 202.177 227.858" fill="#D5EAF5"/>
<path d="M174.38 229.66C171.02 230.013 167.648 230.281 164.276 230.543L164.06 230.449L164.048 230.43C162.575 228.483 161.163 226.48 159.757 224.48C158.345 222.484 157.021 220.427 155.715 218.357C154.406 216.285 153.162 214.176 152.054 211.987L151.241 210.335C150.989 209.775 150.754 209.209 150.523 208.64C150.115 207.486 149.674 206.314 149.644 205.079C150.039 207.501 151.293 209.644 152.437 211.777C153.639 213.899 154.939 215.959 156.248 218.016C157.568 220.068 158.947 222.076 160.308 224.103C161.674 226.124 163.089 228.114 164.489 230.114L164.264 230.001C167.63 229.855 170.999 229.718 174.38 229.66" fill="#DCF1F9"/>
<path d="M139.551 204.819C139.637 208.033 140.458 211.156 141.496 214.169C142.568 217.179 143.876 220.088 145.346 222.934C146.798 225.791 148.246 228.649 149.808 231.443C150.593 232.834 151.399 234.216 152.245 235.57C152.669 236.242 153.116 236.906 153.575 237.551C153.816 237.868 154.053 238.184 154.312 238.482C154.552 238.765 154.869 239.1 155.103 239.243L154.951 239.258L154.954 239.255L155.161 239.271L155.179 239.286C155.608 239.605 156.001 240.013 156.458 240.281C156.932 240.54 157.453 240.735 157.976 240.917C159.029 241.276 160.107 241.568 161.184 241.854C160.085 241.657 158.99 241.428 157.915 241.121C157.374 240.963 156.838 240.802 156.318 240.555C155.797 240.287 155.386 239.892 154.915 239.557L155.143 239.584L155.14 239.587L155.118 239.599L154.988 239.602C154.519 239.353 154.3 239.061 153.998 238.762C153.718 238.461 153.466 238.145 153.21 237.831C152.717 237.189 152.245 236.532 151.792 235.862C150.876 234.535 150.079 233.138 149.263 231.75C147.668 228.96 146.156 226.12 144.759 223.229C143.322 220.356 141.989 217.404 141.046 214.318C140.084 211.253 139.399 208.039 139.551 204.819" fill="#DCF1F9"/>
<path d="M202.327 230.37C202.23 229.898 202.455 229.424 202.875 229.195C203.964 228.611 207.489 227.369 209.869 227.445C210.97 227.485 213.98 228.127 215.386 230.282C215.709 230.775 216.43 231.828 216.129 232.528C215.953 232.939 214.011 232.257 212.419 231.021C211.406 230.233 210.094 230.881 209.324 231.466C209.324 231.466 211.606 232.263 211.436 232.918C211.26 233.572 206.962 233.061 205.797 232.446C205.797 232.446 204.305 232.202 203.535 232.269C203.012 232.315 202.495 231.222 202.327 230.37" fill="#FF97A6"/>
<path d="M159.305 191.608C159.305 191.608 159.022 199.189 158.328 199.907C157.634 200.625 155.455 201.319 154.661 199.253C153.873 197.186 156.234 190.987 156.234 190.987L159.305 191.608" fill="#FF97A6"/>
<path d="M158.927 197.105C157.628 197.5 155.945 197.525 154.654 196.554C154.883 195.209 155.312 193.727 155.668 192.625L159.219 193.343C159.159 194.43 159.064 195.851 158.927 197.105" fill="#C95D77"/>
<path d="M153.486 189.015C153.307 188.062 154.229 184.888 155.078 182.258C155.787 180.073 158.158 178.914 160.322 179.675C163.673 180.852 167.316 182.356 168.134 183.321C169.425 184.836 168.792 187.143 168.36 188.869C167.931 190.591 166.543 193.519 165.097 194.654C163.782 195.695 160.705 196.069 159.156 195.595C154.506 194.167 153.52 192.579 153.486 189.015" fill="#FF97A6"/>
<path d="M169.771 181.995C169.771 181.995 158.514 192.315 151.977 185.976C147.585 181.715 153.151 178.066 159.22 178.221C164.305 178.349 169.771 181.995 169.771 181.995Z" fill="#80540A"/>
<path d="M168.121 206.382C168.388 208.288 168.537 210.205 168.644 212.122C168.76 214.043 168.781 215.963 168.76 217.887C168.729 219.81 168.623 221.736 168.385 223.651C168.148 225.556 167.825 227.495 167.037 229.26C167.141 228.785 167.271 228.328 167.366 227.863L167.585 226.448C167.704 225.498 167.801 224.555 167.853 223.599C167.962 221.694 168.047 219.786 168.066 217.874C168.102 215.963 168.099 214.052 168.111 212.138L168.121 206.382" fill="#B7D6ED"/>
<path d="M172.041 182.443C171.743 178.431 169.963 174.496 166.916 171.915C165.413 170.61 163.651 169.651 161.791 168.948C161.316 168.796 160.836 168.668 160.361 168.528C159.883 168.382 159.405 168.251 158.921 168.184C157.956 168.008 156.97 167.992 156.006 168.111C154.067 168.342 152.244 169.185 150.655 170.336C149.07 171.501 147.694 172.956 146.492 174.539C144.097 177.713 142.268 181.35 140.904 185.075L140.396 185.382C138.899 185.194 137.286 185.273 135.767 185.577C134.242 185.888 132.772 186.466 131.473 187.309C130.182 188.152 129.008 189.211 128.149 190.514C127.647 191.116 127.343 191.85 126.953 192.525C126.612 193.228 126.372 193.98 126.071 194.704L126.08 194.662C125.852 195.891 125.791 197.194 125.915 198.454C126.049 199.711 126.409 200.949 127.13 201.96L127.112 202.343C126.122 203.479 125.261 204.778 124.558 206.126C123.861 207.487 123.31 208.926 123.061 210.436C122.829 211.942 122.957 213.504 123.49 214.937L123.953 215.993L124.592 216.955C124.783 217.293 125.051 217.57 125.322 217.846L126.122 218.689L125.279 217.883C124.993 217.618 124.713 217.35 124.5 217.019L123.813 216.075L123.304 215.013C122.702 213.564 122.513 211.951 122.696 210.384C122.897 208.817 123.414 207.31 124.105 205.901C124.805 204.489 125.639 203.159 126.658 201.939L126.643 202.322C125.812 201.208 125.401 199.863 125.228 198.533C125.146 197.863 125.115 197.191 125.13 196.524C125.149 195.849 125.2 195.191 125.319 194.51V194.504L125.328 194.47C125.629 193.706 125.879 192.921 126.235 192.181C126.637 191.463 126.959 190.696 127.48 190.048C128.384 188.66 129.634 187.507 131.013 186.594C132.401 185.681 133.971 185.051 135.587 184.713C137.216 184.381 138.853 184.272 140.545 184.476L140.034 184.78C141.44 180.93 143.33 177.287 145.816 174.018C147.067 172.399 148.501 170.899 150.184 169.678C151.861 168.479 153.83 167.585 155.923 167.387C156.961 167.283 158.02 167.323 159.037 167.533C159.554 167.618 160.047 167.764 160.531 167.925C161.018 168.081 161.511 168.224 161.998 168.391C163.903 169.155 165.702 170.19 167.227 171.568C170.261 174.353 171.956 178.416 172.041 182.443" fill="#A87C1B"/>
<path d="M587.725 187.709C587.725 187.709 584.244 181.415 583.586 177.584C582.929 173.752 581.657 170.429 584.247 170.316C586.831 170.2 594.208 169.984 596.119 163.021C596.381 162.062 595.934 160.251 595.422 158.842C595.291 158.48 595.687 158.148 596.022 158.343C597.994 159.491 602.136 162.351 603.296 166.728C604.832 172.538 603.034 176.704 602.133 179.248C601.628 180.673 599.72 184.258 599.72 184.258L587.725 187.709" fill="#80540A"/>
<path d="M583.586 177.584C583.221 176.437 582.884 175.301 582.543 174.136C582.391 173.551 582.263 172.952 582.211 172.307C582.18 171.692 582.168 170.855 582.859 170.216C583.194 169.921 583.614 169.775 583.97 169.726C584.369 169.659 584.594 169.671 584.907 169.638C585.492 169.589 586.064 169.525 586.636 169.434C587.774 169.272 588.894 169.029 589.941 168.624C592.035 167.863 593.904 166.497 594.935 164.494C595.24 164.023 595.395 163.472 595.629 162.951C595.809 162.525 595.785 161.935 595.739 161.372C595.696 160.797 595.602 160.215 595.48 159.637C595.425 159.33 595.337 159.095 595.285 158.733C595.294 158.322 595.785 158.131 596.022 158.344C595.727 158.207 595.438 158.502 595.511 158.718L595.854 159.518C596.089 160.078 596.299 160.65 596.457 161.25C596.588 161.853 596.728 162.489 596.567 163.216C596.393 163.816 596.259 164.433 595.973 165.003C595.033 167.401 592.802 169.16 590.456 170.018C589.263 170.438 588.036 170.697 586.81 170.825C586.195 170.885 585.58 170.919 584.974 170.934C584.326 170.949 583.842 170.928 583.599 171.102C583.331 171.245 583.209 171.756 583.179 172.295C583.148 172.836 583.194 173.424 583.258 174.008C583.346 175.189 583.55 176.382 583.586 177.584" fill="#AD7121"/>
<path d="M609.11 364.607C606.538 363.876 606.854 358.714 607.086 355.44C607.372 356.426 607.837 357.661 608.589 356.456C609.691 354.688 610.293 350.296 609.265 348.65C610.436 348.476 611.909 348.775 612.892 349.073C614.162 349.456 610.199 364.917 609.11 364.607Z" fill="#30193B"/>
<path d="M608.588 356.455C607.836 357.66 606.804 357.8 607.054 355.697C607.279 353.825 607.048 352.176 606.996 351.813C606.862 350.861 605.608 350.161 605.608 350.161L606.031 348.536C606.031 348.536 608.926 348.697 609.263 348.648C610.292 350.295 609.69 354.686 608.588 356.455" fill="#FF97A6"/>
<path d="M599.014 194.986C599.014 194.986 600.088 200.322 594.431 215.633C587.759 233.708 588.469 235.613 582.753 233.343L578.307 231.65C578.307 231.65 583.505 208.116 586.006 202.209C588.8 195.61 599.014 194.986 599.014 194.986Z" fill="#D5EAF5"/>
<path d="M549.827 224.196C550.122 223.201 552.398 222.3 553.448 222.373C564.338 223.107 577.491 225.003 582.54 223.995C585.751 223.356 598.804 232.663 592.386 236.811C589.933 238.397 581.743 240.691 577.427 240.554C561.194 240.031 543.935 244.039 549.827 224.196" fill="#D5EAF5"/>
<path d="M630.404 260.702C627.558 246.371 624.938 237.685 624.938 237.685L587.477 241.212C587.534 241.288 587.34 242.795 586.92 243.2C581.837 248.106 528.62 261.883 535.693 278.177C550.201 311.621 596.817 346.115 602.511 350.251C603.963 351.31 609.225 349.734 608.665 348.538L566.897 285.001L595.252 284.024C601.668 284.331 612.81 284.666 623.346 283.105C629.628 282.173 633.143 274.507 630.404 260.702" fill="#30193B"/>
<path d="M641.982 369.867H637.706V256.723H641.982V369.867Z" fill="#AACBE8"/>
<path d="M577.563 368.005H573.287V285.002H577.563V368.005Z" fill="#AACBE8"/>
<path d="M550.199 369.419C550.092 366.75 555.099 365.447 558.285 364.642C557.433 365.219 556.404 366.048 557.783 366.388C559.807 366.881 564.168 366.093 565.413 364.599C565.939 365.658 566.116 367.149 566.143 368.175C566.174 369.501 550.248 370.551 550.199 369.419" fill="#30193B"/>
<path d="M557.783 366.386C556.405 366.046 555.951 365.108 558.027 364.697C559.874 364.324 561.368 363.59 561.7 363.431C562.564 363.005 562.838 361.593 562.838 361.593L564.512 361.49C564.512 361.49 565.261 364.289 565.413 364.597C564.168 366.091 559.807 366.88 557.783 366.386Z" fill="#FF97A6"/>
<path d="M632.062 261.454C631.289 246.864 624.937 237.685 624.937 237.685H595.967C596.022 237.758 593.039 244.587 592.625 244.992C580.141 257.147 526.233 252.71 528.744 270.292C533.632 304.485 552.884 357.142 558.579 361.281C560.033 362.337 563.058 362.048 563.058 362.048C564.376 362.118 565.292 360.761 564.735 359.564L557.057 282.183L595.252 284.024C601.667 284.331 612.809 284.666 623.345 283.105C629.627 282.173 632.813 275.636 632.062 261.454" fill="#3B2B5B"/>
<path d="M587.475 241.211C592.415 242.033 615.733 245.006 625.782 239.215C628.722 229.674 625.889 218.492 623.953 208.802C623.396 206.02 621.077 202.536 618.904 199.842C615.773 195.956 610.879 193.935 605.921 194.528C603.438 194.827 600.997 195.113 599.783 195.238C591.155 196.129 591.264 196.385 587.597 200.862C584.492 204.657 587.499 240.88 587.475 241.211" fill="#D5EAF5"/>
<path d="M595.968 187.887C595.968 187.887 596.263 195.706 596.975 196.448C597.693 197.188 599.942 197.906 600.761 195.776C601.577 193.642 599.136 187.248 599.136 187.248L595.968 187.887Z" fill="#FF97A6"/>
<path d="M596.356 193.554C597.698 193.964 599.433 193.992 600.766 192.991C600.532 191.6 600.087 190.069 599.722 188.937L596.055 189.673C596.116 190.796 596.216 192.263 596.356 193.554" fill="#C95D77"/>
<path d="M601.973 185.202C602.156 184.222 601.206 180.947 600.327 178.233C599.599 175.981 597.152 174.778 594.919 175.567C591.458 176.781 587.703 178.333 586.856 179.328C585.53 180.89 586.181 183.27 586.622 185.05C587.069 186.827 588.5 189.852 589.988 191.024C591.349 192.095 594.526 192.485 596.121 191.992C600.917 190.519 601.933 188.879 601.973 185.202" fill="#FF97A6"/>
<path d="M560.139 236.223H521.893C520.937 236.223 520.161 235.447 520.161 234.488C520.161 233.532 520.937 232.756 521.893 232.756H560.139C561.095 232.756 561.868 233.532 561.868 234.488C561.868 235.447 561.095 236.223 560.139 236.223Z" fill="#3B2B5B"/>
<path d="M518.378 232.746L510.891 195.242C510.705 194.302 511.314 193.392 512.254 193.206C513.189 193.017 514.102 193.626 514.287 194.563L521.774 232.067C521.963 233.008 521.354 233.921 520.414 234.106C519.476 234.295 518.566 233.686 518.378 232.746Z" fill="#3B2B5B"/>
<path d="M636.164 294.981H570.61C567.417 294.981 564.83 292.395 564.83 289.202C564.83 286.009 567.417 283.42 570.61 283.42H636.164C639.36 283.42 641.947 286.009 641.947 289.202C641.947 292.395 639.36 294.981 636.164 294.981Z" fill="#1AADA4"/>
<path d="M641.947 256.727H637.707C635.367 256.727 633.471 254.827 633.471 252.484V212.774C633.471 210.43 635.367 208.534 637.707 208.534C640.051 208.534 641.947 210.43 641.947 212.774V256.727Z" fill="#1AADA4"/>
<path d="M598.61 242.437C598.61 242.437 617.172 244.376 625.782 239.217C628.722 229.676 627.218 218.592 624.607 209.294C623.843 206.564 621.071 202.541 618.904 199.845C613.432 193.021 605.921 194.531 605.921 194.531C605.921 194.531 610.464 212.505 609.204 223.236C607.506 237.686 598.61 242.437 598.61 242.437Z" fill="#AACBE8"/>
<path d="M613.122 197.857C614.958 198.11 616.315 199.662 616.351 201.515C616.412 204.653 615.624 210.326 611.303 219.103C602.769 236.435 599.625 236.812 599.625 236.812L588.623 230.793C588.623 230.793 603.718 208.341 606.104 202.382C607.739 198.31 610.228 197.458 613.122 197.857" fill="#AACBE8"/>
<path d="M551.733 225.289C552.208 224.363 553.216 223.849 554.25 224.038C561.713 225.383 589.949 228.609 594.998 227.602C598.212 226.963 605.678 233.941 599.256 238.086C596.803 239.672 583.65 241.784 579.337 241.644C563.104 241.12 541.465 245.196 551.733 225.289" fill="#AACBE8"/>
<path d="M551.016 230.616C551.08 230.126 550.818 229.651 550.368 229.441C549.211 228.908 545.499 227.864 543.055 228.102C541.923 228.211 538.867 229.073 537.561 231.383C537.257 231.915 536.587 233.047 536.944 233.744C537.15 234.155 539.107 233.327 540.662 231.949C541.655 231.072 543.049 231.653 543.876 232.204C543.876 232.204 541.579 233.178 541.801 233.836C542.026 234.499 546.418 233.689 547.574 232.983C547.574 232.983 549.096 232.633 549.893 232.652C550.432 232.664 550.897 231.504 551.016 230.616" fill="#FF97A6"/>
<path d="M602.857 233.7C604.516 231.262 605.962 228.7 607.349 226.11C608.725 223.517 610.076 220.9 611.327 218.243C612.624 215.613 613.741 212.899 614.654 210.117C615.113 208.726 615.503 207.314 615.795 205.877C616.105 204.444 616.297 202.986 616.352 201.513C616.528 204.468 615.971 207.433 615.165 210.272C614.346 213.124 613.211 215.869 611.954 218.544C610.645 221.192 609.297 223.815 607.812 226.369C606.324 228.913 604.747 231.427 602.857 233.7" fill="#B7D6ED"/>
<path d="M560.896 254.607C560.896 254.607 594.139 252.428 598.612 242.434L587.477 241.21C587.477 241.21 587.474 245.763 582.586 247.909C577.692 250.054 560.896 254.607 560.896 254.607Z" fill="#30193B"/>
<path d="M589.465 201.515C589.2 203.475 588.951 205.429 588.741 207.386C588.537 209.346 588.336 211.3 588.223 213.266C588.05 215.223 587.983 217.189 587.928 219.155C587.892 220.138 587.879 221.124 587.889 222.107C587.849 223.093 587.922 224.073 587.901 225.068C587.609 223.111 587.429 221.136 587.393 219.155C587.338 217.174 587.411 215.192 587.529 213.214C587.703 211.242 587.892 209.27 588.214 207.316C588.534 205.362 588.917 203.418 589.465 201.515" fill="#DCF1F9"/>
<path d="M734.202 180.829C734.202 180.829 725.866 167.529 721.116 168.305C716.368 169.082 714.913 172.858 714.913 172.858C714.913 172.858 724.704 175.187 725.382 177.223C726.061 179.259 712.393 173.333 711.617 174.551V182.941C711.617 182.941 724.606 179.45 727.708 181.486C727.708 181.486 711.909 182.941 711.617 185.555C711.331 188.176 718.236 193.31 718.236 193.31C718.236 193.31 731.491 179.743 731.004 184.588C730.52 189.436 721.505 191.277 720.829 193.31C720.829 193.31 731.101 200.87 731.198 200.581C731.296 200.289 734.01 186.624 738.563 187.884C743.119 189.144 733.329 194.491 734.881 200.59C734.881 200.59 735.365 203.679 735.657 204.069L744.477 205.137C744.477 205.137 742.635 194.281 745.448 193.794C748.257 193.31 744.379 202.617 748.257 206.007C748.257 206.007 757.56 203.006 760.564 209.108C760.564 209.108 766.283 201.162 772.001 200.194C772.001 200.194 764.953 192.05 756.894 190.111C748.838 188.176 758.336 185.072 762.311 187.884C766.283 190.696 772.099 194.96 772.586 197.48C772.586 197.48 778.788 190.501 779.077 187.302C779.077 187.302 774.329 176.97 756.008 180.829C756.008 180.829 751.747 181.197 754.17 178.967C756.592 176.739 770.355 174.024 774.622 178.19C774.622 178.19 775.687 173.248 773.167 171.312C770.647 169.371 752.91 177.609 749.419 176.641C745.931 175.671 751.163 169.855 759.499 169.371C767.835 168.887 769.965 168.275 769.965 168.275C769.965 168.275 763.185 164.233 760.47 163.944C757.755 163.652 750.776 166.464 744.863 172.764C744.863 172.764 742.249 172.764 743.993 170.147C745.737 167.529 753.394 163.074 753.394 163.074C753.394 163.074 744.571 162.684 741.083 164.526C737.595 166.367 734.881 170.436 735.946 174.316C737.014 178.19 737.693 182.594 734.202 180.829" fill="#1AADA4"/>
<path d="M729.566 229.116C726.288 234.753 724.048 241.065 721.921 247.206C719.669 253.71 717.779 260.336 716.23 267.04C713.229 280.017 711.513 293.305 711.129 306.623C710.907 314.429 711.16 322.235 711.851 330.014C711.978 331.445 714.23 331.457 714.097 330.014C711.631 303.309 714.626 276.283 722.831 250.746C725.138 243.57 728.209 236.691 730.628 229.564C730.848 228.931 729.892 228.553 729.566 229.116Z" fill="#1AADA4"/>
<path d="M735.945 181.896C723.604 196.115 716.211 214.519 711.85 232.669C706.996 252.862 706.031 273.792 707.115 294.475C707.437 300.641 707.936 306.795 708.557 312.936C709.175 318.999 709.695 325.159 710.843 331.148C711.044 332.195 712.794 331.97 712.714 330.895C711.908 320.167 710.21 309.525 709.513 298.769C708.825 288.196 708.615 277.575 709.148 266.984C710.122 247.619 713.725 228.269 721.157 210.3C725.229 200.452 730.604 191.188 736.535 182.353C736.769 182 736.222 181.574 735.945 181.896" fill="#1AADA4"/>
<path d="M694.06 242.425C693.832 239.056 696.519 235.942 699.709 235.139C703.178 234.262 706.736 236.204 709.022 238.706C713.815 243.956 714.399 252.389 715.483 259.087C717.942 274.347 719.132 289.814 719.141 305.268C719.144 314.036 718.754 322.801 718.018 331.539C717.905 332.89 720.014 332.884 720.127 331.539C721.655 313.497 721.646 295.337 719.941 277.314C719.107 268.531 717.921 259.757 716.238 251.098C714.932 244.369 712.598 236.764 705.701 233.848C702.588 232.534 699.015 232.628 696.242 234.685C693.671 236.594 692.432 239.418 693.238 242.537C693.354 242.982 694.094 242.906 694.06 242.425" fill="#1AADA4"/>
<path d="M693.776 191.492C695.285 187.965 699.96 186.909 703.366 188.065C707.76 189.566 710.219 194.368 711.784 198.407C715.551 208.152 716.982 218.691 717.63 229.063C718.978 250.696 717.292 272.48 716.285 294.094C716.002 300.139 715.719 306.183 715.43 312.224C715.134 318.515 714.45 324.927 714.711 331.221C714.751 332.128 716.254 332.447 716.394 331.446C717.183 325.685 717.161 319.76 717.438 313.953C717.727 307.908 718.016 301.864 718.306 295.823C718.878 283.701 719.517 271.582 719.934 259.454C720.348 247.436 720.469 235.357 719.328 223.369C718.792 217.732 717.95 212.117 716.562 206.621C715.347 201.806 713.862 196.73 711.217 192.481C708.965 188.866 705.487 185.862 701.053 185.764C697.422 185.682 694.071 187.597 693.048 191.188C692.93 191.608 693.593 191.915 693.776 191.492" fill="#1AADA4"/>
<path d="M725.907 278.448C725.271 274.34 719.774 274.197 716.84 275.807C712.035 278.436 711.335 285.001 710.51 289.819C708.106 303.876 706.748 318.134 706.873 332.402C706.885 333.857 709.147 333.86 709.131 332.402C709.022 320.572 709.92 308.746 711.612 297.041C712.333 292.059 712.704 286.413 714.701 281.744C716.533 277.462 721.591 274.967 725.228 278.841C725.532 279.164 725.961 278.814 725.907 278.448" fill="#1AADA4"/>
<path d="M725.491 277.321C725.491 277.321 720.296 277.836 719.848 280.626C719.404 283.423 722.213 286.75 722.213 286.75L724.404 288.664C724.404 288.664 722.871 284.403 723.884 284.05C724.894 283.691 725.272 289.431 727.268 290.39C729.268 291.345 733.13 290.697 733.13 290.697C733.13 290.697 728.924 286.75 730.567 286.436C732.211 286.12 733.322 290.356 734.886 290.782C736.45 291.214 741.228 289.732 743.386 291.513C743.386 291.513 742.199 288.305 742.89 286.382C742.89 286.382 739.612 283.168 738.334 283.247C737.056 283.323 740.964 280.785 742.516 283.241C742.516 283.241 742.881 281.189 742.461 279.43C742.041 277.671 738.069 279.723 738.103 278.557C738.139 277.391 742.348 277.224 742.348 277.224C742.348 277.224 740.413 271.849 738.17 271.828C735.93 271.804 733.803 279.181 733.072 277.075C732.339 274.972 736.42 271.11 736.42 271.11C736.42 271.11 732.162 269.177 730.491 270.437C728.827 271.697 724.724 271.475 725.491 277.321" fill="#1AADA4"/>
<path d="M693.49 241.959C693.49 241.959 688.048 235.952 682.768 240.663C682.768 240.663 680.333 243.015 680.09 245.776L680.494 248.049C680.494 248.049 682.607 243.487 684.472 243.457C686.344 243.423 679.274 249.513 678.464 252.276C677.652 255.037 679.359 260.968 680.251 262.183C681.146 263.4 682.686 253.089 684.801 255.28C686.91 257.471 683.58 262.265 681.876 263.321C681.876 263.321 682.001 266.568 689.004 270.144C689.004 270.144 692.434 271.766 693.085 273.395C693.085 273.395 698.037 268.276 698.201 267.219C698.201 267.219 691.378 261.778 693.815 260.804C696.253 259.83 699.175 266.166 699.175 266.166C699.175 266.166 702.425 261.699 702.83 259.991C703.235 258.287 693.003 255.362 693.977 253.247C694.954 251.138 703.643 256.336 703.804 256.58C703.968 256.823 705.837 254.224 705.755 252.517C705.672 250.816 696.576 250.082 697.227 248.213C697.875 246.348 705.185 249.187 705.429 249.269C705.672 249.352 708.923 240.578 704.212 239.604C699.5 238.63 697.063 235.787 693.49 241.959" fill="#1AADA4"/>
<path d="M695.381 330.017V344.345C695.381 349.452 698.911 353.725 703.656 354.887V356.592H723.319V354.887C728.07 353.725 731.597 349.452 731.597 344.345V330.017H695.381" fill="#4A4A4B"/>
<path d="M693.932 190.191C693.734 190.276 693.594 181.864 685.203 181.061C676.812 180.254 674.731 181.8 674.731 181.8L671.578 186.095C671.578 186.095 680.236 183.949 680.775 187.775C681.311 191.6 671.578 187.236 671.578 187.236C671.578 187.236 666.139 189.786 666.005 197.571C666.005 197.571 677.281 189.923 680.303 192.136C683.322 194.351 679.968 195.225 676.475 195.827C672.987 196.43 666.879 198.515 665.403 200.794C663.924 203.077 666.946 210.932 666.946 210.932C666.946 210.932 681.578 195.091 684.333 197.708C687.084 200.326 669.024 213.418 669.024 213.418C669.024 213.418 669.295 217.913 673.927 222.612C673.927 222.612 680.775 204.355 684.199 205.56C687.623 206.772 678.422 214.222 677.552 216.705C676.679 219.189 676.545 222.612 676.545 222.612C676.545 222.612 684.731 222.208 685.069 227.312C685.069 227.312 691.512 219.523 695.003 220.732C695.003 220.732 695.742 216.234 693.661 211.267C691.579 206.3 692.924 205.296 694.668 206.835C696.412 208.382 697.489 220.464 697.489 220.464C697.489 220.464 702.855 216.772 703.798 214.891C704.739 213.014 700.375 203.013 697.824 201.936C695.271 200.864 700.77 198.378 703.926 206.166C707.085 213.951 705.944 214.624 705.944 214.624C705.944 214.624 711.851 207.307 711.249 203.616C711.249 203.616 705.609 196.031 698.36 194.89C698.36 194.89 697.015 193.076 700.642 193.076C704.267 193.076 710.445 198.649 710.844 199.924C710.844 199.924 713.528 198.783 712.925 195.024C712.323 191.262 706.617 184.552 693.932 190.191" fill="#1AADA4"/>
<path d="M729.778 229.643C729.778 229.643 721.305 225.187 718.597 229.643C718.597 229.643 717.55 233.222 719.035 237.242C719.035 237.242 721.043 238.289 721.917 235.322C722.787 232.348 723.652 231.913 724.008 232.96C724.361 234.01 720.779 238.727 721.217 242.745C721.217 242.745 721.731 245.015 724.008 246.412C724.008 246.412 724.626 239.777 725.761 239.777C726.896 239.777 725.061 245.192 727.243 248.512C727.243 248.512 730.478 251.656 733.537 252.268C733.537 252.268 731.175 238.727 734.407 240.913C737.639 243.095 735.192 250.344 737.027 252.876C738.863 255.411 743.053 256.023 745.939 255.935C745.939 255.935 740.61 248.421 741.045 245.277C741.483 242.133 743.315 242.31 744.103 244.753C744.888 247.2 745.129 256.522 747.771 255.944C748.209 255.85 752.226 256.111 753.45 257.944C754.673 259.779 753.538 252.353 754.847 250.259C756.158 248.162 756.597 245.277 756.597 245.277C756.597 245.277 750.132 244.199 749.518 242.949C748.906 241.695 756.858 242.949 756.858 242.949C756.858 242.949 757.208 236.719 755.808 236.281C754.411 235.845 745.762 235.492 744.018 234.972C742.271 234.448 741.833 228.596 752.576 230.428C752.576 230.428 756.411 231.475 756.895 232.787C756.895 232.787 754.847 226.496 752.491 225.361C750.132 224.226 742.18 228.903 742.533 227.309C742.88 225.714 745.939 222.567 750.482 223.437C750.482 223.437 746.112 220.123 743.753 219.685C741.398 219.25 738.455 221.782 737.566 223.267C736.68 224.749 734.934 220.47 738.601 218.897C738.601 218.897 731.175 218.2 729.166 221.605C727.158 225.014 729.778 229.643 729.778 229.643" fill="#1AADA4"/>
</svg>
